<svg width="600" height="405" viewBox="0 0 600 405" fill="none" xmlns="http://www.w3.org/2000/svg">
<path d="M119.546 156.045H72.8711V189.713H119.546V156.045Z" fill="#14398a"/>
<path d="M351.15 140.702C351.15 152.281 341.741 161.66 330.124 161.66C318.507 161.66 309.098 152.281 309.098 140.702C309.098 129.133 318.507 119.744 330.124 119.744C341.741 119.744 351.15 129.133 351.15 140.702Z" fill="#14398a"/>
<path d="M13.2151 351.587C13.2151 351.587 -0.228007 312.777 28.0305 304.2C54.4216 296.189 75.943 273.586 70.3924 242.653C66.3172 219.947 72.9201 185.713 94.9677 176.735C117.015 167.758 140.91 163.613 167.177 151.962C193.444 140.311 209.198 111.177 247.753 108.185C286.308 105.192 323.408 142.799 333.478 149.946C343.537 157.093 353.08 164.323 391.625 164.734C430.18 165.146 444.18 150.296 470.014 156.127C494.631 161.68 509.89 182.772 509.147 201.333C508.404 219.895 514.945 249.851 554.449 261.019C602.351 274.563 589.187 335.226 584.369 351.175" fill="#E9EAEC"/>
<path d="M83.6897 324.819C58.3613 318.525 46.9609 289.875 44.7634 280.887C44.5776 280.106 43.6594 280.065 43.4118 280.826C34.1677 309.075 53.1615 351.134 53.1615 351.134H83.6897L82.9056 337.406L83.6897 324.819Z" fill="#14398a"/>
<path d="M49.6068 329.457C44.2522 331.134 28.9107 323.082 26.5584 320.706C26.2592 320.408 24.8767 320.418 24.7529 320.881C23.0094 327.246 39.1349 351.135 39.1349 351.135H53.0321L49.6068 329.457Z" fill="#14398a"/>
<path d="M44.1055 280.281C44.1055 280.281 44.3531 324.655 84.146 347.7" stroke="white" stroke-width="0.7" stroke-miterlimit="10"/>
<path d="M83.7007 351.135C83.1126 346.579 82.9062 342.692 82.9062 337.972C82.9062 299.676 102.767 266.007 132.779 246.633" stroke="#243238" stroke-width="0.7" stroke-miterlimit="10"/>
<path d="M109.359 350.846C111.959 313.188 126.352 289.134 143.169 272.043" stroke="#243238" stroke-width="0.7" stroke-miterlimit="10"/>
<path d="M144.029 351.31C143.172 341.211 149.074 319.174 154.191 309.25" stroke="#243238" stroke-width="0.7" stroke-miterlimit="10"/>
<path d="M161.842 351.134C126.124 338.928 93.832 308.848 93.832 289.721" stroke="#243238" stroke-width="0.7" stroke-miterlimit="10"/>
<path d="M154.374 310.421C141.065 303.881 114.57 280.125 114.57 260.998" stroke="#243238" stroke-width="0.7" stroke-miterlimit="10"/>
<path d="M132.616 228.914C128.54 228.914 124.434 229.449 120.369 230.529C90.9037 238.416 74.6027 272.928 83.9397 307.604C89.3252 327.564 101.231 342.938 116.676 351.134" stroke="#243238" stroke-width="0.7" stroke-miterlimit="10"/>
<path d="M522.571 351.114C522.571 351.114 530.175 337.982 534.198 329.035C544.185 306.823 544.711 282.965 544.711 282.965C514.72 294.431 496.459 330.269 496.459 330.269C496.459 330.269 498.605 337.55 498.532 338.311C498.46 339.062 495.953 344.337 495.148 345.016C494.344 345.695 489.99 351.073 492.187 351.114C494.395 351.155 521.735 351.114 521.735 351.114" fill="#14398a"/>
<path d="M547.425 351.495C560.724 346.107 566.698 331.329 567.523 326.393C568.741 319.174 567.368 315.215 567.368 315.215C567.368 315.215 562.138 321.765 552.522 323.061C541.545 324.552 531.031 329.015 531.031 329.015C531.031 329.015 525.976 331.216 525.873 332.327C525.77 333.427 517.041 348.616 520.054 348.307C523.067 347.989 523.665 349.037 523.665 349.037C523.665 349.037 519.765 351.495 521.416 351.495H547.425Z" fill="#14398a"/>
<path d="M493.137 306.719C493.137 306.719 498.718 297.012 500.957 297.012C502.814 297.012 512.842 306.719 510.542 312.19C510.542 312.19 508.179 315.574 508.127 315.964C508.066 316.355 502.618 327.667 501.524 327.4C500.431 327.132 500.245 327.06 500.121 326.413C499.998 325.765 495.778 309.949 493.137 306.719Z" fill="#14398a"/>
<path d="M306.799 244.361C305.644 242.489 304.127 246.592 302.466 249.112C300.805 251.631 297.699 254.86 295.688 256.012C293.665 257.164 289.198 259.899 289.198 259.899C289.198 259.899 292.448 255.364 293.387 252.567C294.326 249.76 292.376 249.184 291.654 248.752C290.931 248.32 288.548 253.071 284.37 255.652C282.152 257.03 279.325 260.064 277.158 262.614L277.148 262.635C275.239 264.887 273.836 266.759 273.836 266.759C273.392 266.522 273.124 266.378 273.124 266.378C266.707 272.384 257.876 287.644 251.665 296.735L251.035 297.63L248.033 301.949C248.043 301.939 245.299 304.119 245.299 304.108L238.232 294.576C232.846 285.485 221.766 265.874 218.598 258.089C217.948 256.495 217.319 254.233 217.319 254.233C218.114 254.017 222.137 249.04 220.342 238.9C219.073 231.743 219.011 226.797 219.083 224.493L219.166 223.022C220.239 221.675 221.167 220.236 221.931 218.991C224.624 214.569 227.162 208.841 228.988 203.926L229.039 204.81C229.039 204.81 235.426 200.625 237.695 190.526C239.965 180.428 238.129 162.627 226.336 155.295L226.305 154.482C224.201 150.554 216.432 145.711 210.561 144.466C201.761 142.595 186.244 144.261 174.699 156.776C163.154 169.291 161.71 180.51 155.076 185.539C148.442 190.578 124.342 206.826 120.008 227.249C115.675 247.672 127.272 277.896 142.221 281.834C142.912 299.141 142.118 313.137 142.603 314.927C143.325 317.58 145.017 325.087 152.27 335.422C152.425 335.648 152.218 350.58 152.218 350.847L167.374 351.032L170.015 353.089L170.046 353.11C171.666 354.251 173.368 355.382 175.184 356.483C175.184 356.483 175.308 356.164 175.525 355.65L175.71 355.732C176.051 356.431 177.351 358.539 181.839 361.532C181.839 361.532 201.008 362.015 203.339 362.015C203.824 362.015 204.268 361.995 204.681 361.964L204.97 362.015L224.954 361.357C227.894 361.522 229.163 361.923 229.865 360.473C230.566 359.012 230.566 357.665 225.985 357.346C221.405 357.017 217.546 356.051 216.143 355.187C215.483 354.786 213.017 353.737 210.696 352.791C211.356 352.503 213.883 351.372 215.493 350.148C217.36 348.729 217.453 345.726 213.337 347.515C212.46 347.896 211.17 348.091 209.695 348.174L209.684 347.505C210.933 342.744 217.825 316.408 219.775 307.029L220.022 307.286C221.92 310.237 235.364 330.733 243.669 331.288C243.669 331.288 246.929 332.501 251.902 326.887C256.885 321.272 265.613 308.078 265.613 308.078C274.672 287.706 285.474 270.677 285.474 270.677C285.381 270.677 285.278 270.666 285.175 270.666C285.309 270.635 286.134 270.358 290.818 268.095C296.162 265.504 299.67 262.11 300.578 260.907C302.528 258.316 304.622 254.727 305.406 252.567C306.211 250.397 307.955 246.232 306.799 244.361ZM274.053 266.83L274.032 266.861C273.96 266.82 273.877 266.779 273.805 266.748L274.053 266.83Z" fill="white"/>
<path d="M202.773 233.491C200.091 233.244 194.571 231.064 192.518 225.881C190.857 221.706 190.062 215.094 190.062 215.094C190.062 215.094 195.427 222.971 199.276 225.203C203.124 227.434 204.372 228.38 204.372 228.38L203.207 232.267C203.196 232.288 203.103 233.522 202.773 233.491Z" fill="#243238"/>
<path d="M204.122 229.171C204.246 228.78 203.792 228.039 205.33 228.584C206.867 229.119 209.91 230.261 212.717 229.273C215.533 228.286 218.67 223.144 219.01 223.504C219.34 223.864 218.67 225.037 219.227 230.261C219.784 235.495 221.909 242.683 220.527 247.126C219.144 251.558 217.865 254.53 217.008 254.098C216.152 253.666 217.318 252.689 215.275 251.455C213.232 250.221 206.052 246.067 204.968 246.56C203.895 247.054 202.895 247.65 202.647 246.725C202.399 245.799 201.378 241.274 202.234 237.048C203.122 232.832 204.122 229.171 204.122 229.171Z" fill="#243238"/>
<path d="M228.349 158.945L227.565 159.12C227.545 159.017 225.069 148.497 211.842 145.073C203.784 142.985 186.658 144.373 175 157.001C168.944 163.562 165.642 169.856 162.98 174.915C160.494 179.646 158.534 183.389 155.325 185.816C154.778 186.227 154.128 186.711 153.365 187.266C144.678 193.673 124.343 208.676 120.402 227.29C116.161 247.312 127.696 276.322 141.768 281.371C141.768 281.351 141.768 281.34 141.768 281.32C140.376 260.413 142.377 257.873 145.4 254.037L145.823 253.503C150.187 247.888 172.544 242.9 174.897 242.386C184.326 227.259 186.803 206.671 186.823 206.466H186.833C186.38 205.026 185.977 203.802 185.781 203.206C185.183 203.411 184.605 203.524 184.058 203.524C182.48 203.524 181.118 202.691 180.107 201.067C177.889 197.467 178.26 190.845 181.84 188.541C183.119 187.719 184.347 187.492 185.492 187.893C186.988 188.408 188.082 189.888 188.856 191.4C189.722 189.94 192.518 187.184 201.319 187.071C214.906 186.906 224.903 182.649 232.775 173.681L233.374 174.206C231.764 176.047 230.062 177.682 228.257 179.132C228.473 179.348 233.477 184.561 232.156 194.691C231.929 196.46 230.795 200.265 229.133 204.635C229.959 204.059 235.582 199.791 237.686 190.433C239.905 180.571 238.182 163.398 227.111 155.767C228.03 157.608 228.339 158.914 228.349 158.945Z" fill="#243238"/>
<path d="M237.86 361.285L237.148 353.037L253.934 308.129H334.892L316.631 356.534L237.86 361.285Z" fill="white"/>
<path d="M214.09 351.135H237.86" stroke="#243238" stroke-width="0.7" stroke-miterlimit="10"/>
<path d="M0 351.135H167.168" stroke="#243238" stroke-width="0.7" stroke-miterlimit="10"/>
<path d="M187.212 206.6C187.212 206.6 184.809 227.434 175.141 242.829C175.141 242.829 150.607 248.084 146.14 253.832C142.952 257.935 140.724 259.663 142.168 281.382C143.231 297.434 141.229 312.449 142.962 316.192C144.696 319.935 149.08 340.718 175.193 356.545C175.193 356.545 180.682 341.53 192.505 343.978C192.505 343.978 164.742 321.087 164.308 313.467C163.875 305.846 165.371 272.055 164.092 268.733" stroke="#243238" stroke-width="0.7" stroke-miterlimit="10"/>
<path d="M188.863 192.449C188.863 192.449 189.761 187.708 201.306 187.564C212.851 187.42 223.962 184.397 233.051 174.041" stroke="white" stroke-width="0.7" stroke-miterlimit="10"/>
<path d="M227.955 179.502C227.955 179.502 233.051 184.685 231.741 194.732C231.246 198.557 226.83 210.98 221.929 219.032C219.618 222.837 215.069 230.221 210.354 229.593C198.231 227.979 190.4 217.695 188.45 210.62C187.491 207.134 186.016 202.774 186.016 202.774" stroke="#243238" stroke-width="0.7" stroke-miterlimit="10"/>
<path d="M199.492 192.448C199.492 192.448 206.497 188.386 210.49 192.211" stroke="#243238" stroke-width="0.7" stroke-miterlimit="10"/>
<path d="M222.414 192.88C222.414 192.88 225.901 188.623 229.038 193.436" stroke="#243238" stroke-width="0.7" stroke-miterlimit="10"/>
<path d="M218.33 215.926C209.932 215.144 203.566 211.936 203.566 211.936C203.566 211.936 205.558 218.373 213.172 219.381C216.968 219.885 218.33 215.926 218.33 215.926Z" stroke="#243238" stroke-width="0.7" stroke-miterlimit="10"/>
<path d="M214.945 208.634C214.945 208.634 220.692 209.292 220.31 207.935C219.413 204.768 217.803 197.631 217.803 197.631" stroke="#243238" stroke-width="0.7" stroke-miterlimit="10"/>
<path d="M206.787 197.57C206.622 199.441 205.859 200.902 205.085 200.83C204.311 200.758 203.816 199.184 203.981 197.323C204.146 195.451 204.909 193.991 205.683 194.063C206.457 194.135 206.952 195.708 206.787 197.57Z" fill="#243238"/>
<path d="M226.666 198.074C226.501 199.945 225.738 201.406 224.964 201.334C224.19 201.262 223.695 199.688 223.86 197.827C224.025 195.955 224.788 194.495 225.562 194.567C226.346 194.629 226.831 196.202 226.666 198.074Z" fill="#243238"/>
<path d="M228.567 205.119C228.567 205.119 235.427 200.666 237.708 190.568C239.977 180.469 238.347 162.936 226.555 155.604" stroke="#243238" stroke-width="0.7" stroke-miterlimit="10"/>
<path d="M227.955 159.109C227.955 159.109 225.582 148.301 211.943 144.764C203.235 142.501 186.253 144.301 174.709 156.806C163.164 169.321 161.719 180.54 155.086 185.569C148.452 190.608 124.351 206.856 120.018 227.279C115.685 247.702 127.632 277.298 142.065 281.977" stroke="#243238" stroke-width="0.7" stroke-miterlimit="10"/>
<path d="M204.36 228.391C204.36 228.391 200.192 239.209 202.781 247.127" stroke="white" stroke-width="0.7" stroke-miterlimit="10"/>
<path d="M176.008 243.98C176.008 243.98 187.047 255.128 204.988 246.572C205.731 246.212 212.489 249.616 215.295 251.467C216.275 252.115 217.286 255.169 219.742 260.815C224.137 270.944 242.254 303.533 245.287 304.108C248.32 304.684 263.899 275.057 273.143 266.419C273.143 266.419 280.87 270.738 285.523 270.738C285.523 270.738 274.721 287.768 265.663 308.14" stroke="#243238" stroke-width="0.7" stroke-miterlimit="10"/>
<path d="M217.02 254.386C217.814 254.17 222.137 249.08 220.342 238.94C218.546 228.801 219.165 223.062 219.165 223.062" stroke="#243238" stroke-width="0.7" stroke-miterlimit="10"/>
<path d="M209.632 262.244C209.632 262.244 212.376 271.448 216.988 281.372C221.61 291.295 221.899 296.766 219.876 306.69C217.854 316.613 209.508 348.318 209.508 348.318" stroke="#243238" stroke-width="0.7" stroke-miterlimit="10"/>
<path d="M231.617 367.825L253.933 308.129H334.891L312.379 367.825H231.617Z" stroke="#243238" stroke-width="0.7" stroke-miterlimit="10"/>
<path d="M219.766 307.029C219.766 307.029 236.696 333.849 245.311 331.165" stroke="#243238" stroke-width="0.7" stroke-miterlimit="10"/>
<path d="M175.617 355.525C175.617 355.525 176.742 358.302 182.303 362.014C182.303 362.014 201.028 362.066 203.36 362.066C208.921 362.066 209.839 359.875 207.187 358.796C204.536 357.716 192.651 357.284 192.104 356.523" stroke="#243238" stroke-width="0.7" stroke-miterlimit="10"/>
<path d="M233.878 362.066H169.108C169.108 362.066 164.743 364.946 169.108 367.825H232.031" stroke="#243238" stroke-width="0.7" stroke-miterlimit="10"/>
<path d="M273.836 266.799C273.836 266.799 280.202 258.295 284.38 255.703C288.569 253.112 290.942 248.371 291.664 248.803C292.386 249.235 294.336 249.811 293.397 252.618C292.458 255.426 289.208 259.95 289.208 259.95C289.208 259.95 293.686 257.215 295.698 256.063C297.72 254.911 300.825 251.672 302.476 249.163C304.137 246.643 305.654 242.551 306.809 244.412C307.965 246.284 306.221 250.459 305.437 252.608C304.643 254.767 302.548 258.367 300.609 260.948C299.701 262.161 296.193 265.555 290.849 268.136C285.505 270.728 285.185 270.717 285.185 270.717" stroke="#243238" stroke-width="0.7" stroke-miterlimit="10"/>
<path d="M301.403 208.326H251.479L235.105 219.905L247.3 202.577V176.611H301.403V208.326Z" stroke="#243238" stroke-width="0.7" stroke-miterlimit="10"/>
<path d="M262.28 193.076C262.28 193.95 261.568 194.67 260.681 194.67C259.794 194.67 259.082 193.961 259.082 193.076C259.082 192.202 259.794 191.482 260.681 191.482C261.568 191.493 262.28 192.202 262.28 193.076Z" fill="#243238"/>
<path d="M275.601 193.076C275.601 193.95 274.889 194.67 274.002 194.67C273.125 194.67 272.402 193.961 272.402 193.076C272.402 192.202 273.114 191.482 274.002 191.482C274.879 191.493 275.601 192.202 275.601 193.076Z" fill="#243238"/>
<path d="M288.808 193.076C288.808 193.95 288.096 194.67 287.209 194.67C286.321 194.67 285.609 193.961 285.609 193.076C285.609 192.202 286.321 191.482 287.209 191.482C288.086 191.493 288.808 192.202 288.808 193.076Z" fill="#243238"/>
<path d="M537.777 194.382C537.777 181.764 527.502 171.521 514.843 171.521C502.183 171.521 491.918 181.774 491.918 194.382C491.918 207 502.194 217.242 514.853 217.242C527.512 217.242 537.777 207 537.777 194.382Z" stroke="#243238" stroke-width="0.7" stroke-miterlimit="10"/>
<path d="M516.286 171.08C516.286 171.08 507.413 187.853 512.262 217.099" stroke="#243238" stroke-width="0.7" stroke-miterlimit="10"/>
<path d="M507.404 172.766C507.404 172.766 488.885 188.685 504.732 214.908" stroke="#243238" stroke-width="0.7" stroke-miterlimit="10"/>
<path d="M522.086 172.766C522.086 172.766 533.62 190.875 518.176 217.252" stroke="#243238" stroke-width="0.7" stroke-miterlimit="10"/>
<path d="M492.414 190.011C492.414 190.011 512.697 188.211 537.5 198.011" stroke="#243238" stroke-width="0.7" stroke-miterlimit="10"/>
<path d="M498.82 178.021C498.82 178.021 511.252 184.973 533.207 180.685" stroke="#243238" stroke-width="0.7" stroke-miterlimit="10"/>
<path d="M493.859 203.607C493.859 203.607 513.544 199.431 529.98 211.556" stroke="#243238" stroke-width="0.7" stroke-miterlimit="10"/>
<path d="M254.843 142.901L248.992 148.732L254.843 154.564L260.694 148.732L254.843 142.901Z" stroke="#243238" stroke-width="0.7" stroke-miterlimit="10"/>
<path d="M321.606 289.413L316.645 294.357L321.605 299.303L326.566 294.359L321.606 289.413Z" stroke="#243238" stroke-width="0.7" stroke-miterlimit="10"/>
<path d="M573.795 241.917L569.41 246.287L573.795 250.657L578.179 246.287L573.795 241.917Z" stroke="#243238" stroke-width="0.7" stroke-miterlimit="10"/>
<path d="M454.511 134.869L448.66 140.701L454.511 146.533L460.361 140.701L454.511 134.869Z" stroke="#243238" stroke-width="0.7" stroke-miterlimit="10"/>
<path d="M553.986 247.28L540.234 260.986L553.986 274.693L567.737 260.986L553.986 247.28Z" stroke="#243238" stroke-width="0.7" stroke-miterlimit="10"/>
<path d="M65.5012 220.055L51.6914 233.82L65.5012 247.585L79.311 233.82L65.5012 220.055Z" stroke="#243238" stroke-width="0.7" stroke-miterlimit="10"/>
<path d="M44.6921 256.289C44.6921 254.191 42.9898 252.494 40.8851 252.494C38.7804 252.494 37.0781 254.191 37.0781 256.289C37.0781 258.387 38.7804 260.083 40.8851 260.083C42.9898 260.083 44.6921 258.376 44.6921 256.289Z" stroke="#243238" stroke-width="0.7" stroke-miterlimit="10"/>
<path d="M167.804 132.92C172.264 130.173 173.645 124.343 170.889 119.898C168.133 115.453 162.284 114.076 157.825 116.823C153.365 119.57 151.984 125.4 154.74 129.845C157.496 134.29 163.345 135.667 167.804 132.92Z" stroke="#243238" stroke-width="0.7" stroke-miterlimit="10"/>
<path d="M343.362 161.66C354.975 161.66 364.388 152.277 364.388 140.702C364.388 129.127 354.975 119.744 343.362 119.744C331.75 119.744 322.336 129.127 322.336 140.702C322.336 152.277 331.75 161.66 343.362 161.66Z" stroke="#243238" stroke-width="0.7" stroke-miterlimit="10"/>
<path d="M370.094 146.4C370.094 143.263 367.536 140.713 364.389 140.713C361.242 140.713 358.684 143.263 358.684 146.4C358.684 149.536 361.242 152.087 364.389 152.087C367.536 152.087 370.094 149.536 370.094 146.4Z" stroke="#243238" stroke-width="0.7" stroke-miterlimit="10"/>
<path d="M208.108 361.059C208.108 361.059 209.232 361.44 212.647 361.604C216.052 361.769 219.735 362.304 220.55 360.854C221.365 359.404 221.324 358.437 216.062 357.727C210.223 356.936 207.973 355.887 206.333 355.681C200.04 354.889 199.555 354.437 198.203 354.066" stroke="#243238" stroke-width="0.7" stroke-miterlimit="10"/>
<path d="M220.342 361.202C223.282 361.366 224.922 361.829 225.614 360.214C226.243 358.723 226.274 357.736 221.734 357.088C217.855 356.533 214.77 355.021 213.336 355.042C211.428 355.062 206.321 353.427 205.145 353.047" stroke="#243238" stroke-width="0.7" stroke-miterlimit="10"/>
<path d="M224.973 361.408C227.913 361.572 229.182 361.973 229.884 360.523C230.586 359.073 230.586 357.716 226.005 357.397C221.424 357.068 217.565 356.101 216.162 355.237C214.945 354.487 207.496 351.515 206.33 351.134C206.33 351.134 198.52 349.191 190.215 343.699" stroke="#243238" stroke-width="0.7" stroke-miterlimit="10"/>
<path d="M196.242 347.186C196.242 347.186 209.231 349.366 213.348 347.567C217.464 345.777 217.372 348.78 215.504 350.199C213.647 351.618 210.542 352.914 210.542 352.914" stroke="#243238" stroke-width="0.7" stroke-miterlimit="10"/>
<path d="M504.535 351.494C505.154 350.692 505.794 330.495 543.72 284.373" stroke="white" stroke-width="0.7" stroke-miterlimit="10"/>
<path d="M172.648 257.328C172.648 257.328 175.166 277.484 179.22 284.528" stroke="#243238" stroke-width="0.7" stroke-miterlimit="10"/>
<path d="M153.684 315.142C153.684 315.142 159.523 313.178 162.814 315.472" stroke="#243238" stroke-width="0.7" stroke-miterlimit="10"/>
<path d="M148.945 316.922C148.945 316.922 150.173 315.832 152.195 315.482" stroke="#243238" stroke-width="0.7" stroke-miterlimit="10"/>
<path d="M152.199 335.34C152.199 335.34 152.848 347.464 152.199 351.135" stroke="#243238" stroke-width="0.7" stroke-miterlimit="10"/>
<path d="M160.855 351.135C158.173 350.889 152.199 350.847 152.199 350.847C152.488 349.953 152.199 335.648 152.199 335.648C152.199 335.648 158.338 343.423 161.65 346.384C164.992 349.377 166.88 350.796 166.88 350.796L165.188 351.207C165.188 351.207 161.196 351.166 160.855 351.135Z" fill="#243238"/>
<path d="M180.395 286.719C180.395 286.719 181.911 289.156 182.705 290.174" stroke="#243238" stroke-width="0.7" stroke-miterlimit="10"/>
<path d="M220.982 299.613C220.982 299.613 228.358 315.666 229.761 318.915C231.536 323.019 232.114 323.79 232.114 323.79L219.754 307.028L220.982 299.613Z" fill="#243238"/>
<path d="M236.22 355.525C236.22 355.525 300.258 341.714 330.724 319.193L312.381 367.824H232.031L236.22 355.525Z" fill="#243238"/>
<path d="M288.877 341.189C287.567 344.254 284.296 345.786 281.562 344.624C278.839 343.462 277.683 340.038 278.994 336.983C280.304 333.919 283.574 332.387 286.308 333.549C289.042 334.711 290.188 338.125 288.877 341.189Z" fill="white"/>
<path d="M288.877 341.19C290.188 338.136 289.032 334.711 286.308 333.549C283.585 332.387 280.304 333.93 278.994 336.984C277.683 340.038 278.839 343.463 281.562 344.625C284.297 345.787 287.577 344.244 288.877 341.19Z" stroke="#243238" stroke-width="0.7" stroke-miterlimit="10"/>
<path d="M165.547 198.804C169.602 194.587 172.821 190.71 173.718 188.047" stroke="white" stroke-width="0.7" stroke-miterlimit="10"/>
<path d="M134.886 233.49C134.886 233.49 131.399 222.126 145.709 208.789C150.238 204.562 153.178 203.205 165.837 190.031" stroke="white" stroke-width="0.7" stroke-miterlimit="10"/>
<path d="M135.742 236.75L136.939 240.421" stroke="white" stroke-width="0.7" stroke-miterlimit="10"/>
<path d="M116.152 169.362C119.123 168.437 123.013 167.306 123.013 167.306V153.094H77.793V186.68H82.219C89.7917 178.042 99.954 174.432 116.152 169.362Z" fill="white"/>
<path d="M89.6858 149.176H86.9414V156.837H89.6858V149.176Z" fill="white"/>
<path d="M113.529 149.176H110.785V156.837H113.529V149.176Z" fill="white"/>
<path d="M113.281 153.094H123.02V186.68H78.1406V153.094H86.7967" stroke="#243238" stroke-width="0.7" stroke-miterlimit="10"/>
<path d="M89.7891 153.094H110.918" stroke="#243238" stroke-width="0.7" stroke-miterlimit="10"/>
<path d="M78.1406 161.793H123.02" stroke="#243238" stroke-width="0.7" stroke-miterlimit="10"/>
<path d="M84.5586 167.695H89.6862" stroke="#243238" stroke-width="0.7" stroke-miterlimit="10"/>
<path d="M84.5586 173.949H89.6862" stroke="#243238" stroke-width="0.7" stroke-miterlimit="10"/>
<path d="M84.5586 180.57H89.6862" stroke="#243238" stroke-width="0.7" stroke-miterlimit="10"/>
<path d="M97.6914 167.695H102.809" stroke="#243238" stroke-width="0.7" stroke-miterlimit="10"/>
<path d="M97.6914 173.949H102.809" stroke="#243238" stroke-width="0.7" stroke-miterlimit="10"/>
<path d="M97.6914 180.57H102.809" stroke="#243238" stroke-width="0.7" stroke-miterlimit="10"/>
<path d="M110.848 167.695H115.965" stroke="#243238" stroke-width="0.7" stroke-miterlimit="10"/>
<path d="M110.848 173.949H115.965" stroke="#243238" stroke-width="0.7" stroke-miterlimit="10"/>
<path d="M110.848 180.57H115.965" stroke="#243238" stroke-width="0.7" stroke-miterlimit="10"/>
<path d="M89.6858 149.176H86.9414V156.837H89.6858V149.176Z" stroke="#243238" stroke-width="0.7" stroke-miterlimit="10"/>
<path d="M113.529 149.176H110.785V156.837H113.529V149.176Z" stroke="#243238" stroke-width="0.7" stroke-miterlimit="10"/>
<path d="M119.887 246.633C119.887 246.633 123.952 262.243 133.144 269.401C137.343 272.671 141.986 274.758 141.986 274.758C141.986 274.758 141.625 270.768 141.718 276.805C141.811 282.841 143.42 282.708 141.47 281.782C139.53 280.857 134.166 277.309 131.039 273.236C128.419 269.833 124.364 261.441 124.364 261.441L119.887 246.633Z" fill="#243238"/>
<path d="M203.228 152.24C200.071 151.541 194.757 152.497 190.785 154.976" stroke="white" stroke-width="0.7" stroke-miterlimit="10"/>
<path d="M495.086 306.688C490.969 291.046 471.883 255.907 471.15 254.694C468.561 250.375 460.359 246.169 452.115 244.112C446.039 242.6 439.859 242.025 435.742 241.809C435.763 241.737 435.773 241.675 435.773 241.675L434.38 241.737C432.399 241.665 430.14 241.644 429.965 241.654L427.292 227.556C429.789 226.599 437.744 223.535 439.735 221.653C442.19 219.349 451.857 210.289 451.713 191.44C451.569 172.59 436.557 165.412 436.557 165.412C434.968 161.237 425.157 153.329 411.301 153.473C397.445 153.617 388.036 168.487 388.036 168.487H388.046C381.412 172.106 376.811 179.871 376.821 188.57C376.832 199.358 385.673 208.13 385.673 208.13C385.684 208.562 385.663 209.035 385.601 209.57C384.879 216.398 387.654 222.085 390.079 227.556C392.503 233.016 396.857 237.335 400.612 237.191C401.768 237.15 403.512 236.955 405.554 236.523L406.235 238.384C406.163 238.487 404.172 243.073 404.089 243.166C403.625 243.238 402.201 243.464 400.148 243.834C392.328 245.254 375.717 248.74 371.776 253.48H374.84L376.151 254.684L376.316 263.877L375.697 266.541L365.235 266.726C365.235 266.726 360.066 280.393 357.714 288.938C356.125 294.697 354.99 297.741 353.546 304.795C352.102 311.84 350.657 322.915 349.935 327.666C349.213 332.407 346.757 344.912 346.757 344.912L346.788 344.86L346.716 345.076H334.49L331.457 351.123H493.033C493.033 351.123 496.623 346.907 497.026 344.274C498.986 341.025 501.338 336.109 501.194 334.834C501.039 333.014 499.202 322.329 495.086 306.688ZM366.618 345.097C366.618 345.097 373.499 318.668 373.685 318.03C373.881 317.393 376.801 305.844 376.801 305.844C376.801 305.844 377.781 325.671 377.987 329.558C378.193 333.446 378.854 345.097 378.854 345.097H366.618ZM431.017 241.911L430.996 241.809L431.058 241.911H431.017Z" fill="white"/>
<path d="M385.063 205.941C384.753 204.09 384.392 201.982 385.692 196.562C387.508 188.922 390.458 181.538 391.026 180.16L391.521 179.533C395.607 183.214 403.943 189.374 417.943 194.166C422.545 195.74 427.105 195.76 427.156 195.76V196.562C427.053 196.562 425.609 196.552 423.545 196.274C423.927 198.095 425.124 203.987 425.464 207C425.588 208.039 426.403 208.861 427.435 209.005C429.24 202.763 431.108 199.987 431.19 199.874L431.273 199.781C431.386 199.688 434.203 197.56 436.803 198.362C438.268 198.814 439.341 200.09 440.001 202.146C441.074 205.478 440.094 209.448 437.381 212.779C435.121 215.566 432.181 217.181 429.622 217.057C429.344 217.623 428.529 219.124 426.671 221.634C426.795 223.382 427.002 225.469 427.332 227.557C429.849 226.59 437.762 223.536 439.754 221.664C442.209 219.361 451.876 210.301 451.732 191.451C451.587 172.602 436.576 165.424 436.576 165.424C434.987 161.248 425.175 153.34 411.32 153.484C397.464 153.628 388.055 168.498 388.055 168.498H388.065C381.441 172.118 376.83 179.882 376.84 188.582C376.85 197.951 383.525 205.797 385.279 207.699C385.248 207.082 385.155 206.517 385.063 205.941Z" fill="#243238"/>
<path d="M498.191 241.439C498.191 244.113 496.015 246.283 493.332 246.283C490.65 246.283 488.473 244.113 488.473 241.439C488.473 238.766 490.65 236.596 493.332 236.596C496.015 236.596 498.191 238.766 498.191 241.439Z" fill="#14398a"/>
<path d="M404.294 243.156C404.294 243.156 402.685 243.393 400.188 243.856C392.368 245.275 375.758 248.761 371.816 253.502" stroke="#243238" stroke-width="0.7" stroke-miterlimit="10"/>
<path d="M365.286 266.748C365.286 266.748 360.118 280.415 357.765 288.961C356.176 294.709 355.042 297.763 353.597 304.818C352.153 311.862 350.708 322.938 349.986 327.689C349.264 332.429 346.809 344.934 346.809 344.934" stroke="#243238" stroke-width="0.7" stroke-miterlimit="10"/>
<path d="M376.71 304.088C376.71 304.088 375.812 311.441 373.357 319.061C370.901 326.681 366.609 345.099 366.609 345.099" stroke="#243238" stroke-width="0.7" stroke-miterlimit="10"/>
<path d="M378.546 276.055C378.546 276.055 376.359 292.169 376.844 305.106C377.463 321.58 378.855 345.088 378.855 345.088" stroke="#243238" stroke-width="0.7" stroke-miterlimit="10"/>
<path d="M331.52 351.134L334.542 345.098H445.08L447.102 351.134" stroke="#243238" stroke-width="0.7" stroke-miterlimit="10"/>
<path d="M421.121 324.088L427.6 316.304C431.747 311.758 432.789 310.401 431.995 309.599C430.272 307.861 429.746 307.727 428.239 309.424C427.424 310.339 420.46 318.792 414.734 325.795" stroke="#243238" stroke-width="0.7" stroke-miterlimit="10"/>
<path d="M407.185 335.648C406.308 336.718 405.792 337.355 405.792 337.355L403.719 342.538L409.579 338.456" stroke="#243238" stroke-width="0.7" stroke-miterlimit="10"/>
<path d="M405.617 236.35C405.617 236.35 407.289 237.913 404.297 243.157" stroke="#243238" stroke-width="0.7" stroke-miterlimit="10"/>
<path d="M404.296 243.158C404.296 243.158 397.249 263.53 403.594 267.633C409.939 271.736 418.389 269.073 426.467 258.717C434.545 248.362 435.773 241.688 435.773 241.688" stroke="#243238" stroke-width="0.7" stroke-miterlimit="10"/>
<path d="M430.324 241.676C430.324 241.676 441.683 241.521 452.114 244.123C460.357 246.169 468.57 250.375 471.149 254.705C471.871 255.918 490.968 291.057 495.085 306.699C499.201 322.34 501.037 333.025 501.254 334.855C501.471 336.686 494.311 350.065 492.804 351.144" stroke="#243238" stroke-width="0.7" stroke-miterlimit="10"/>
<path d="M485.997 331.822C485.997 331.822 481.127 328.912 473.225 327.503C465.322 326.094 439.673 328.799 438.373 327.503C437.074 326.207 442.273 335.863 439.023 345.355" stroke="#243238" stroke-width="0.7" stroke-miterlimit="10"/>
<path d="M452.227 274.543C452.443 275.078 461.78 309.384 476.059 328.1" stroke="#243238" stroke-width="0.7" stroke-miterlimit="10"/>
<path d="M462.08 302.545C462.08 302.545 459.656 323.76 458.645 327.092" stroke="#243238" stroke-width="0.7" stroke-miterlimit="10"/>
<path d="M438.167 328.449C438.167 328.449 424.487 324.047 421.67 323.945C418.854 323.831 412.746 326.752 411.013 327.184C409.837 327.472 407.402 328.212 406.391 329.559C405.906 330.197 405.844 331.38 406.123 332.223C406.989 334.814 414.583 331.39 414.583 331.39" stroke="#243238" stroke-width="0.7" stroke-miterlimit="10"/>
<path d="M409.3 333.076C409.3 333.076 406.989 334.002 407.206 335.411C407.422 336.809 408.31 337.879 410.744 337.385C413.179 336.891 417.027 335.873 417.027 335.873" stroke="#243238" stroke-width="0.7" stroke-miterlimit="10"/>
<path d="M411.309 337.271C411.309 337.271 409.091 338.218 409.308 339.616C409.525 341.015 410.412 342.084 412.847 341.601C415.281 341.107 418.026 340.49 418.026 340.49" stroke="#243238" stroke-width="0.7" stroke-miterlimit="10"/>
<path d="M412.396 341.715C412.396 341.715 412.086 343.412 416.203 344.337C420.319 345.252 420.526 345.098 420.526 345.098" stroke="#243238" stroke-width="0.7" stroke-miterlimit="10"/>
<path d="M427.117 313.188C427.117 313.188 428.355 314.699 429.16 314.658" stroke="#243238" stroke-width="0.7" stroke-miterlimit="10"/>
<path d="M439.88 341.715L426.117 345.098" stroke="#243238" stroke-width="0.7" stroke-miterlimit="10"/>
<path d="M420.367 327.781C421.451 328.779 421.162 329.365 421.017 330.26" stroke="#243238" stroke-width="0.7" stroke-miterlimit="10"/>
<path d="M421.113 333.396C422.197 334.394 421.908 334.98 421.763 335.875" stroke="#243238" stroke-width="0.7" stroke-miterlimit="10"/>
<path d="M421.66 338.641C422.744 339.628 422.455 340.224 422.31 341.119" stroke="#243238" stroke-width="0.7" stroke-miterlimit="10"/>
<path d="M423.164 321.641L430.603 326.135" stroke="#243238" stroke-width="0.7" stroke-miterlimit="10"/>
<path d="M388.059 167.963C388.059 167.963 397.468 153.093 411.324 152.949C425.179 152.805 433.959 161.268 436.58 164.888C439.603 169.063 441.202 177.259 441.202 177.259" stroke="white" stroke-width="0.7" stroke-miterlimit="10"/>
<path d="M427.129 220.307C427.129 220.307 427.129 237.799 431.493 244.607" stroke="#243238" stroke-width="0.7" stroke-miterlimit="10"/>
<path d="M423.019 195.8C423.019 195.8 424.649 203.462 425.051 207.051C425.206 208.398 426.351 209.416 427.713 209.436C429.55 202.968 431.5 200.109 431.5 200.109C431.5 200.109 437.432 195.543 439.598 202.279C441.765 209.025 434.78 217.19 429.364 216.645C429.364 216.645 427.806 220.337 420.491 228.533C414.353 235.413 404.386 237.068 400.641 237.212C396.886 237.356 392.532 233.037 390.107 227.577C387.683 222.116 384.908 216.429 385.63 209.601C386.084 205.261 384.041 205.138 386.063 196.654C388.085 188.17 391.469 180.066 391.469 180.066" stroke="#243238" stroke-width="0.7" stroke-miterlimit="10"/>
<path d="M395.301 223.948C395.301 223.948 405.618 224.987 409.879 219.629" stroke="#243238" stroke-width="0.7" stroke-miterlimit="10"/>
<path d="M397.322 200.398C397.322 200.398 395.95 211.762 395.3 216.729C395.155 217.829 400.211 216.729 400.211 216.729" stroke="#243238" stroke-width="0.7" stroke-miterlimit="10"/>
<path d="M416.355 198.423C416.355 198.423 409.35 194.361 405.367 198.197" stroke="#243238" stroke-width="0.7" stroke-miterlimit="10"/>
<path d="M393.42 198.855C393.42 198.855 389.933 194.598 386.797 199.41" stroke="#243238" stroke-width="0.7" stroke-miterlimit="10"/>
<path d="M409.063 203.544C409.228 205.416 409.991 206.876 410.765 206.804C411.539 206.732 412.034 205.159 411.869 203.298C411.704 201.426 410.94 199.966 410.167 200.038C409.382 200.11 408.887 201.683 409.063 203.544Z" fill="#243238"/>
<path d="M389.172 204.048C389.337 205.92 390.101 207.38 390.875 207.308C391.649 207.236 392.144 205.663 391.979 203.802C391.814 201.93 391.05 200.47 390.276 200.542C389.503 200.614 389.007 202.177 389.172 204.048Z" fill="#243238"/>
<path d="M445.079 265.605C445.079 265.605 438.156 288.435 432.234 296.631" stroke="#243238" stroke-width="0.7" stroke-miterlimit="10"/>
<path d="M384.629 285.617C384.629 285.617 385.63 313.136 393.419 321.641" stroke="#243238" stroke-width="0.7" stroke-miterlimit="10"/>
<path d="M394.422 310.721C394.422 310.721 395.722 313.919 398.105 317.138" stroke="#243238" stroke-width="0.7" stroke-miterlimit="10"/>
<path d="M362.688 314.824C362.688 314.824 368.857 314.814 371.24 318.033" stroke="#243238" stroke-width="0.7" stroke-miterlimit="10"/>
<path d="M405.184 241.408C407.856 241.706 414.789 239.639 418.028 235.104C422.681 228.574 421.711 227.217 421.711 227.217C421.711 227.217 415.944 233.346 411.725 234.755C407.505 236.163 406.091 236.842 406.091 236.842L405.668 239.752L405.184 241.408Z" fill="#243238"/>
<path d="M461.969 303.017C461.969 303.017 459.256 323.605 458.647 327.091L457.058 327.358L456.883 289.104L461.969 303.017Z" fill="#243238"/>
<path d="M378.844 342.528L404.936 339.495L403.729 342.528L409.289 338.939C409.289 338.939 409.712 341.716 412.096 341.716C412.859 341.716 412.88 342.95 413.654 343.423C415.263 344.38 417.45 344.955 417.45 344.955H378.999L378.844 342.528Z" fill="#243238"/>
<path d="M429.027 344.954L429.213 344.563L439.53 341.951C439.53 341.951 439.427 344.81 438.88 344.954C438.333 345.098 429.027 344.954 429.027 344.954Z" fill="#243238"/>
<path d="M427.129 215.834C427.129 215.834 428.088 216.677 429.368 216.646" stroke="#243238" stroke-width="0.7" stroke-miterlimit="10"/>
<path d="M428.095 173.979C427.3 170.853 424.071 166.544 420.078 164.117" stroke="white" stroke-width="0.7" stroke-miterlimit="10"/>
<path d="M390.41 178.752C390.41 178.752 396.136 187.133 417.792 194.558C422.517 196.172 427.129 196.172 427.129 196.172" stroke="white" stroke-width="0.7" stroke-miterlimit="10"/>
<path d="M190.053 195.535C189.733 195.216 187.567 185.395 182.047 188.953C176.527 192.511 179.127 206.857 186.917 202.332" stroke="#243238" stroke-width="0.7" stroke-miterlimit="10"/>
<path d="M318.672 351.135H599.998" stroke="#243238" stroke-width="0.7" stroke-miterlimit="10"/>
<path d="M436.278 386.294C433.172 384.391 429.53 379.712 431.315 375.866C433.1 372.02 432.904 370.375 437.825 369.974C443.675 369.501 490.628 369.696 490.628 369.696C490.628 369.696 482.178 377.687 490.195 385.42L436.278 386.294Z" fill="white"/>
<path d="M515.833 385.863H429.85C429.85 385.863 422.68 386.521 422.68 395.262C422.68 403.201 429.159 404.178 429.159 404.178H516.431" stroke="#243238" stroke-width="1.6" stroke-miterlimit="10" stroke-linecap="round"/>
<path d="M462.183 385.863C462.183 385.863 452.258 393.35 461.306 404.178" stroke="#243238" stroke-width="0.7" stroke-miterlimit="10"/>
<path d="M484.23 385.863C484.23 385.863 474.304 393.35 483.353 404.178" stroke="#243238" stroke-width="0.7" stroke-miterlimit="10"/>
<path d="M469.995 369.707C469.995 369.707 460.07 376.237 469.119 385.698" stroke="#243238" stroke-width="0.7" stroke-miterlimit="10"/>
<path d="M516.441 385.863C516.441 385.863 506.516 393.35 515.564 404.178" stroke="#243238" stroke-width="0.7" stroke-miterlimit="10"/>
<path d="M490.544 386.006C481.496 376.371 491.421 369.707 491.421 369.707" stroke="#243238" stroke-width="0.7" stroke-miterlimit="10"/>
<path d="M491.754 369.707H436.31C436.31 369.707 431.688 370.283 431.688 377.996C431.688 384.988 435.866 385.863 435.866 385.863H492.146" stroke="#243238" stroke-width="1.6" stroke-miterlimit="10" stroke-linecap="round"/>
<path d="M460.277 403.889V387.291" stroke="#243238" stroke-width="0.7" stroke-miterlimit="10"/>
<path d="M436.277 369.707V385.863" stroke="#243238" stroke-width="0.7" stroke-miterlimit="10"/>
<path d="M460.555 394.119H475.349" stroke="#243238" stroke-width="0.7" stroke-miterlimit="10"/>
<path d="M460.555 390.932H467.498" stroke="#243238" stroke-width="0.7" stroke-miterlimit="10"/>
<path d="M486.738 395.961H492.144" stroke="#243238" stroke-width="0.7" stroke-miterlimit="10"/>
<path d="M469.562 398.049H476.496" stroke="#243238" stroke-width="0.7" stroke-miterlimit="10"/>
<path d="M455.406 374.242H459.079" stroke="#243238" stroke-width="0.7" stroke-miterlimit="10"/>
<path d="M496.738 390.932H503.682" stroke="#243238" stroke-width="0.7" stroke-miterlimit="10"/>
<path d="M487.793 399.271H505.084" stroke="#243238" stroke-width="0.7" stroke-miterlimit="10"/>
<path d="M436.277 374.242H453.569" stroke="#243238" stroke-width="0.7" stroke-miterlimit="10"/>
<path d="M443.141 377.697H460.432" stroke="#243238" stroke-width="0.7" stroke-miterlimit="10"/>
<path d="M436.277 382.428H453.569" stroke="#243238" stroke-width="0.7" stroke-miterlimit="10"/>
<path d="M459.091 386.058L428.604 386.14L423.755 390.213L422.898 398.728L427.933 404.404L459.844 404.599C459.844 404.599 461.835 404.671 458.678 400.136C455.521 395.601 459.627 387.395 461.257 386.418C462.877 385.421 459.091 386.058 459.091 386.058Z" fill="#243238"/>
<path d="M303.949 246.809V219.413C303.949 217.922 305.156 216.719 306.652 216.719H343.453C344.949 216.719 346.156 217.922 346.156 219.413V253.503" stroke="#243238" stroke-width="0.7" stroke-miterlimit="10"/>
<path d="M346.156 266.646V269.669C346.156 271.16 344.949 272.364 343.453 272.364H306.652C305.156 272.364 303.949 271.15 303.949 269.669V255.529" stroke="#243238" stroke-width="0.7" stroke-miterlimit="10"/>
<path d="M375.303 266.778H335.52C334.52 266.778 333.715 265.975 333.715 264.978V255.311C333.715 254.314 334.53 253.512 335.52 253.512H375.303C376.304 253.512 377.109 254.314 377.109 255.311V264.978C377.119 265.965 376.304 266.778 375.303 266.778Z" stroke="#243238" stroke-width="0.7" stroke-miterlimit="10"/>
<path d="M309.617 223.166H340.641" stroke="#243238" stroke-width="0.7" stroke-miterlimit="10"/>
<path d="M339.906 258.141H370.93" stroke="#243238" stroke-width="0.7" stroke-miterlimit="10"/>
<path d="M339.906 262.645H352.328" stroke="#243238" stroke-width="0.7" stroke-miterlimit="10"/>
<path d="M309.617 229.645H340.641" stroke="#243238" stroke-width="0.7" stroke-miterlimit="10"/>
<path d="M309.617 235.207H321.162" stroke="#243238" stroke-width="0.7" stroke-miterlimit="10"/>
<path d="M323.789 235.207H340.637" stroke="#243238" stroke-width="0.7" stroke-miterlimit="10"/>
<path d="M309.617 241.676H330.035" stroke="#243238" stroke-width="0.7" stroke-miterlimit="10"/>
<path d="M309.617 247.527H340.641" stroke="#243238" stroke-width="0.7" stroke-miterlimit="10"/>
<path d="M309.617 254.006H328.735" stroke="#243238" stroke-width="0.7" stroke-miterlimit="10"/>
<path d="M309.617 259.57H328.209" stroke="#243238" stroke-width="0.7" stroke-miterlimit="10"/>
<path d="M309.617 266.037H322.348" stroke="#243238" stroke-width="0.7" stroke-miterlimit="10"/>
<path d="M121.855 373.543L125.043 397.894H142.448L145.76 373.543H121.855Z" stroke="#243238" stroke-width="0.7" stroke-miterlimit="10"/>
<path d="M123.042 382.027C123.042 382.027 125.57 397.813 138.879 397.638L142.562 398.204H125.167L122.949 382.295L123.042 382.027Z" fill="#243238"/>
<path d="M134.453 371.053C134.453 371.053 132.121 370.724 132.121 367.7C132.121 365.068 134.432 365.078 134.432 362.415C134.432 358.836 132.121 360.728 132.121 357.088" stroke="#243238" stroke-width="0.7" stroke-miterlimit="10"/>
<path d="M140.043 367.166C140.043 367.166 137.711 366.837 137.711 363.814C137.711 361.181 140.022 361.191 140.022 358.528C140.022 354.949 137.711 356.842 137.711 353.201" stroke="#243238" stroke-width="0.7" stroke-miterlimit="10"/>
<path d="M128.552 361.09C128.552 361.09 126.23 360.761 126.23 357.738C126.23 355.105 128.541 355.115 128.541 352.452C128.541 348.873 126.23 350.765 126.23 347.125" stroke="#243238" stroke-width="0.7" stroke-miterlimit="10"/>
<path d="M144.943 378.191C149.111 378.191 152.495 381.564 152.495 385.719C152.495 389.874 149.111 393.247 144.943 393.247C144.943 393.247 143.591 393.329 143.086 393.195" stroke="#243238" stroke-width="0.7" stroke-miterlimit="10"/>
<path d="M144.944 381.338C147.369 381.338 149.339 383.302 149.339 385.719C149.339 388.135 147.369 390.099 144.944 390.099C144.944 390.099 143.737 390.141 143.5 390.027" stroke="#243238" stroke-width="0.7" stroke-miterlimit="10"/>
<path d="M43.1758 358.797H52.2858" stroke="#243238" stroke-width="0.7" stroke-miterlimit="10"/>
<path d="M119.07 398.193H152.271" stroke="#243238" stroke-width="0.7" stroke-miterlimit="10"/>
<path d="M186.77 378.891H219.97" stroke="#243238" stroke-width="0.7" stroke-miterlimit="10"/>
<path d="M537.406 361.83H546.826" stroke="#243238" stroke-width="0.7" stroke-miterlimit="10"/>
<path d="M333.891 387.127H343.31" stroke="#243238" stroke-width="0.7" stroke-miterlimit="10"/>
<path d="M75.5312 385.719H97.3416" stroke="#243238" stroke-width="0.7" stroke-miterlimit="10"/>
<path d="M412.258 404.588H434.068" stroke="#243238" stroke-width="0.7" stroke-miterlimit="10"/>
<path d="M222.262 378.891H227.802" stroke="#243238" stroke-width="0.7" stroke-miterlimit="10"/>
<path d="M417.544 362.57H403.605" stroke="#243238" stroke-width="0.7" stroke-miterlimit="10"/>
<path d="M401.314 362.57H395.773" stroke="#243238" stroke-width="0.7" stroke-miterlimit="10"/>
<path d="M472.937 18.4722C476.873 16.0641 478.092 10.9529 475.66 7.05605C473.227 3.15921 468.064 1.95234 464.128 4.36045C460.191 6.76855 458.972 11.8797 461.405 15.7766C463.837 19.6734 469 20.8803 472.937 18.4722Z" stroke="#ACB6BA" stroke-width="0.7" stroke-miterlimit="10"/>
<path d="M201.086 33.4973C201.086 31.011 199.055 29 196.543 29C194.031 29 192 31.011 192 33.4973C192 35.9837 194.031 37.9947 196.543 37.9947C199.055 37.9947 201.086 35.9715 201.086 33.4973Z" stroke="#ACB6BA" stroke-width="0.7" stroke-miterlimit="10"/>
</svg>
